PathFileType	4	(X/Y/Z)	C:/Users/opensim2020/Desktop/walking_exp_matlab/subject06_walking20_straight_04.trc	
DataRate	CameraRate	NumFrames	NumMarkers	Units	OrigDataRate	OrigDataStartFrame	OrigNumFrames	
100.00	100.00	6	43	mm	100.00	2173	126	
Frame#	Time	LFHD			RFHD			LBHD			RBHD			C7			T10			CLAV			STRN			RBAK			LSHO			LUPA			LELB			LFRM			LWRA			LWRB			LFIN			RSHO			RUPA			RELB			RFRM			RWRA			RWRB			RFIN			LASI			RASI			LPSI			RPSI			LTHI			LKNE			LTIB			LANK			LHEE			LTOE			RTHI			RKNE			RTIB			RANK			RHEE			RTOE			*39			*40			*41			*42			
		X1	Y1	Z1	X2	Y2	Z2	X3	Y3	Z3	X4	Y4	Z4	X5	Y5	Z5	X6	Y6	Z6	X7	Y7	Z7	X8	Y8	Z8	X9	Y9	Z9	X10	Y10	Z10	X11	Y11	Z11	X12	Y12	Z12	X13	Y13	Z13	X14	Y14	Z14	X15	Y15	Z15	X16	Y16	Z16	X17	Y17	Z17	X18	Y18	Z18	X19	Y19	Z19	X20	Y20	Z20	X21	Y21	Z21	X22	Y22	Z22	X23	Y23	Z23	X24	Y24	Z24	X25	Y25	Z25	X26	Y26	Z26	X27	Y27	Z27	X28	Y28	Z28	X29	Y29	Z29	X30	Y30	Z30	X31	Y31	Z31	X32	Y32	Z32	X33	Y33	Z33	X34	Y34	Z34	X35	Y35	Z35	X36	Y36	Z36	X37	Y37	Z37	X38	Y38	Z38	X39	Y39	Z39	X40	Y40	Z40	X41	Y41	Z41	X42	Y42	Z42	X43	Y43	Z43	

16	0.150	1495.97473	987.39893	1649.17444	1365.33313	988.21747	1631.22266	1499.69971	1121.66492	1597.50806	1371.67664	1120.85571	1585.09009	1447.31970	1123.21741	1434.88257	1441.79565	1161.15674	1105.50989	1450.31311	1013.18134	1356.91699	1463.32251	976.31458	1181.06165	1372.48645	1195.51819	1262.07068	1608.97949	1076.25525	1392.65283	1694.58569	1055.12695	1200.13538	1719.53442	1030.68640	1093.32239	1748.75806	914.18549	1008.84888	1710.58179	788.67059	989.79718	1743.77063	818.74017	935.58942	1750.49475	729.06128	929.05872	1287.54187	1056.53406	1385.65833	1197.44067	1136.88892	1204.83057	1176.59155	1159.43005	1086.10474	1149.47766	1185.55640	970.28320	1166.17432	1180.91602	816.02173	1128.08044	1231.24219	840.79797	1119.88770	1226.11804	756.51886	1561.97656	999.90881	941.46722	1347.03381	969.03284	956.91754	1511.87402	1149.96411	972.10352	1347.11914	1120.44250	980.83881	1620.73621	1125.50037	638.66705	1612.63440	1159.09253	476.20490	1600.86060	1356.50793	309.86453	1562.99207	1475.28955	186.61559	1512.15137	1504.06543	202.07689	1579.66016	1411.39429	52.45679	1276.19128	949.19525	634.46277	1310.90576	903.15625	521.45111	1311.50012	890.24103	254.99658	1360.08691	873.85388	71.74957	1406.70068	909.37976	46.95951	1363.61633	721.34052	45.05174	1435.18335	1087.09595	1686.09253									 
17	0.160	1495.96692	972.41760	1651.27197	1365.29919	973.24152	1633.51611	1499.66992	1106.76978	1599.76843	1371.49731	1105.92847	1587.50928	1446.93555	1108.08887	1436.87280	1441.29932	1145.67468	1107.92603	1449.92700	997.74805	1359.30579	1462.62219	960.34564	1183.64026	1371.51440	1179.46765	1264.44519	1608.22034	1061.44556	1395.04626	1692.96008	1042.01782	1201.99609	1716.84619	1018.64734	1094.96643	1746.02295	903.44659	1008.21362	1708.22546	778.37897	987.63458	1741.28137	809.71863	933.86761	1748.28735	719.90442	925.92261	1287.20081	1040.75623	1388.35400	1196.59534	1119.20178	1206.85803	1176.05798	1140.13806	1087.85291	1148.91101	1164.64331	971.76154	1165.68506	1158.26990	817.45380	1127.11389	1208.65674	841.78699	1119.16211	1202.85266	757.40509	1560.48157	983.65216	943.66833	1345.78833	953.40381	960.22211	1511.84802	1133.85693	973.98486	1347.17163	1105.12109	983.68909	1620.26416	1103.69287	638.01556	1613.13391	1132.76123	474.83746	1599.63977	1333.49695	315.17920	1561.41626	1456.90112	198.03119	1509.87292	1483.15845	215.50261	1578.24512	1404.33704	57.93406	1276.52148	935.06232	637.14233	1311.16870	890.75763	522.70746	1311.91748	884.46307	255.71733	1360.38940	871.95020	72.17471	1406.57654	908.43677	47.60553	1363.76392	719.98334	43.51551	1435.20776	1072.02795	1688.39099									 
18	0.170	1495.87268	957.45514	1653.44312	1365.22070	958.42596	1635.77942	1499.65442	1091.80566	1601.77881	1371.52612	1090.99634	1589.58630	1446.45190	1092.90674	1438.68774	1440.78857	1130.36426	1110.26025	1449.59387	982.29584	1361.56616	1461.90210	944.62915	1186.00586	1370.49597	1163.64966	1266.79785	1607.47681	1046.64905	1397.17639	1691.36145	1028.85815	1203.76489	1714.30359	1006.99725	1096.37268	1743.53528	893.58398	1007.55109	1705.86890	768.58575	984.65283	1738.08533	800.67639	930.87756	1745.95667	711.53314	921.65839	1286.91772	1024.93896	1391.04333	1195.84363	1101.16125	1208.72607	1175.48267	1120.63391	1089.41016	1148.28809	1143.30444	973.02344	1165.42993	1135.37988	818.76550	1126.42163	1185.13184	842.48181	1118.58093	1178.48096	758.05365	1559.15491	967.66467	945.70416	1344.18213	938.66638	963.47870	1511.96326	1118.09033	975.78693	1347.31995	1090.43762	986.31921	1619.88110	1081.64148	637.27954	1613.77185	1105.82776	473.73428	1598.75513	1308.35474	319.63412	1559.44775	1435.88794	208.01332	1507.49866	1459.54858	227.67447	1577.13599	1394.77698	64.44729	1276.92224	920.58704	639.70557	1311.37561	879.29498	523.71118	1312.39575	877.77032	256.25290	1360.66174	870.42700	72.31625	1406.39648	907.94385	48.01435	1364.17310	718.77618	42.47258	1435.27917	1057.23633	1690.49548									 
19	0.180	1495.77087	942.53632	1655.68274	1365.09314	943.60748	1638.08362	1499.78442	1076.71265	1603.66235	1371.60657	1076.08252	1591.49585	1445.95776	1077.57617	1440.62024	1440.22412	1115.27722	1112.58020	1449.20422	966.96875	1363.67834	1461.09338	929.17889	1188.18738	1369.33020	1147.98389	1269.21167	1606.91223	1031.84644	1399.07275	1689.84473	1015.73029	1205.30225	1712.01978	995.73364	1097.47290	1741.22888	884.03223	1006.09955	1703.61438	759.33252	980.91296	1735.54395	792.63831	927.65631	1743.63196	703.79364	916.41345	1286.59448	1008.89038	1393.52124	1194.92847	1083.19104	1210.46167	1174.66467	1101.01782	1090.83447	1147.66382	1121.61096	974.02130	1165.16028	1111.53979	819.96301	1125.66565	1161.35254	842.85248	1117.97754	1153.41443	758.50909	1557.74902	951.84174	947.58606	1342.40515	924.37769	966.08057	1512.20520	1102.66992	977.47382	1347.48730	1075.93591	988.46228	1619.60828	1059.67651	636.74738	1613.40967	1077.89233	472.41931	1598.23486	1281.51160	323.29779	1557.79382	1412.54492	216.61649	1505.32056	1433.86621	238.00261	1574.68506	1382.13379	69.12059	1277.10510	906.66339	641.80042	1311.42200	868.97522	524.41846	1312.79199	871.88300	256.53329	1360.92297	869.58521	72.46178	1406.38208	907.75427	48.25739	1364.87061	717.99847	41.82170	1435.33105	1042.52283	1692.44971									 
20	0.190	1495.71130	927.54224	1657.89734	1365.06824	928.75751	1640.28906	1499.95020	1061.55969	1605.46143	1371.80115	1061.10938	1593.32202	1445.86536	1062.39978	1442.98633	1439.58508	1100.38660	1114.84204	1448.98999	951.59265	1365.78687	1460.35413	913.96527	1190.20569	1368.01489	1132.48462	1271.69019	1606.57324	1017.03577	1400.79907	1688.48987	1002.64276	1206.49915	1709.88477	984.84192	1098.10193	1738.81238	874.96466	1004.21521	1701.55469	750.56378	976.41241	1733.64172	785.62531	924.18176	1741.29065	696.71167	910.28369	1286.31079	992.84210	1395.90906	1194.11182	1064.88574	1211.94629	1173.70947	1081.30945	1092.08057	1146.98743	1099.63293	974.78436	1165.00781	1087.18750	820.95740	1124.87122	1137.01599	843.08197	1117.53052	1127.43811	758.75647	1556.72217	936.68646	949.40948	1340.83386	910.66339	968.27979	1512.36865	1087.64600	979.06665	1347.48608	1061.53247	990.31860	1618.68884	1037.59766	636.10791	1612.99365	1050.26501	471.82983	1597.56616	1253.09656	325.45139	1556.40503	1387.85828	223.93713	1503.27502	1407.68079	245.98944	1573.93774	1364.35034	75.94014	1277.00793	894.54694	643.00098	1311.58704	859.44739	524.93890	1312.95728	867.19427	256.57172	1361.17383	868.93286	72.64882	1406.31396	907.68903	48.42109	1365.27014	717.53406	41.43474	1435.48975	1027.77368	1694.40186									 
21	0.200	1495.64514	912.52783	1660.16833	1365.07507	913.89276	1642.53992	1500.13904	1046.34302	1607.23535	1372.03516	1046.13623	1595.13818	1445.54980	1046.83264	1445.31531	1438.97107	1085.66016	1117.09302	1448.73914	936.32434	1367.82263	1459.44287	898.75580	1191.94995	1366.59875	1117.07874	1274.13086	1606.34851	1002.01630	1402.30933	1687.36060	989.77045	1207.36609	1708.06152	974.20801	1098.36597	1736.40259	866.11633	1001.53406	1699.58032	742.30682	971.17657	1731.84192	779.29541	920.10303	1738.93225	690.30450	903.35724	1286.00525	976.68787	1398.10229	1193.07629	1046.48804	1213.24451	1172.65979	1061.35376	1093.12012	1146.19019	1077.34314	975.36420	1164.90491	1062.25574	821.96008	1124.35034	1111.95068	842.91034	1117.22327	1100.64856	758.95465	1555.69141	921.88818	951.11121	1338.88892	896.32910	970.08563	1512.43909	1073.06543	980.59491	1347.71411	1048.21204	992.41223	1617.22949	1015.51208	635.61401	1612.33325	1023.11334	471.80316	1597.66223	1224.80786	326.78625	1554.44189	1362.63965	229.77501	1501.60657	1382.98804	251.56107	1572.26294	1338.86218	81.56646	1277.11963	884.17157	643.51105	1311.55725	850.48792	525.04242	1312.76135	863.15942	256.70859	1361.08228	868.46124	73.02818	1406.31458	907.56750	48.63236	1365.35376	717.23584	41.13466	1435.63818	1012.92297	1696.28687									 
